<svg width="180" height="30" viewBox="0 0 180 30" fill="none" xmlns="http://www.w3.org/2000/svg">
<path fill-rule="evenodd" clip-rule="evenodd" d="M45.9907 22.1425L46.3509 21.0711H40.1068L39.8666 21.4282C38.906 23.0949 37.1048 24.1663 34.7032 24.1663C33.1421 24.1663 31.8212 23.6901 30.8606 22.8568C30.1401 22.1425 29.5397 21.3092 29.1795 20.1187H46.2308L46.3509 19.4044C46.471 18.9282 46.471 18.333 46.471 17.8568C46.471 11.3092 41.7879 5.83301 34.7032 5.83301C27.9787 5.83301 22.9353 10.9521 22.9353 17.7378C22.9353 24.5235 27.9787 29.6425 34.7032 29.6425C39.8666 29.8806 44.0694 27.0235 45.9907 22.1425ZM34.7032 11.5473C36.1441 11.5473 37.465 12.0235 38.4256 12.7378C39.1461 13.333 39.7465 14.0473 40.1068 15.1187H29.2995C30.2602 12.9759 32.1815 11.5473 34.7032 11.5473Z" fill="white"/>
<path fill-rule="evenodd" clip-rule="evenodd" d="M60.2333 11.8488L60.04 11.7857C58.3589 11.4286 56.9179 11.0714 55.9573 10.4762C55.4769 10.2381 55.1167 9.88095 54.8765 9.64285C54.6364 9.40476 54.5163 9.04762 54.5163 8.45238C54.5163 7.61905 54.8765 7.02381 55.597 6.54762C56.3175 6.07143 57.3982 5.71428 58.7191 5.71428C60.04 5.71428 61.1207 6.07143 61.9613 6.66666C62.6817 7.2619 63.1621 8.09524 63.1621 9.16666V10H69.2862V9.28571C69.2862 6.54762 68.3255 4.16667 66.5243 2.5C64.603 0.833333 62.0814 0 58.8392 0C55.7171 0 53.0753 0.714286 51.2741 2.2619C49.3529 3.80952 48.3922 5.95238 48.3922 8.69047C48.3922 10.2381 48.7525 11.5476 49.3529 12.5C49.9533 13.5714 50.7938 14.4048 51.7545 15C53.6757 16.1905 56.0773 16.7857 58.1187 17.2619H58.2388C59.9199 17.619 61.3609 17.9762 62.4416 18.5714C62.9219 18.8095 63.2822 19.1667 63.5223 19.5238C63.7625 19.8809 63.8826 20.2381 63.8826 20.8333C63.8826 21.7857 63.4022 22.619 62.5617 23.2143C61.7211 23.8095 60.5203 24.1667 59.1994 24.1667C57.7585 24.1667 56.4376 23.8095 55.597 23.0952C54.7565 22.3809 54.2761 21.4286 54.2761 20.119V19.2857H48.032V20.119C48.032 23.0952 49.2328 25.5952 51.1541 27.3809C53.1954 29.0476 55.9573 30 59.1994 30C62.2014 30 64.8432 29.2857 66.8846 27.7381C68.9259 26.1905 70.1267 23.8095 70.1267 20.8333C70.1267 17.619 68.6858 15.5952 66.6444 14.2857C64.7231 13.0952 62.3948 12.444 60.2333 11.8488Z" fill="white"/>
<path fill-rule="evenodd" clip-rule="evenodd" d="M82.9755 29.8808C89.9401 29.8808 95.2236 24.7618 95.2236 17.976C95.2236 11.1903 89.9401 6.07129 82.9755 6.07129C76.0108 6.07129 70.7273 11.0713 70.7273 17.976C70.7273 24.8808 76.0108 29.8808 82.9755 29.8808ZM82.9755 24.1665C79.3731 24.1665 76.7313 21.6665 76.7313 17.976C76.7313 14.4046 79.253 11.7856 82.9755 11.7856C86.5779 11.7856 89.0995 14.2856 89.0995 17.976C89.0995 21.6665 86.5779 24.1665 82.9755 24.1665Z" fill="white"/>
<path fill-rule="evenodd" clip-rule="evenodd" d="M117.198 19.6431V6.54785H111.194V19.0478C111.194 20.7145 110.714 22.024 109.993 22.8574C109.273 23.6907 108.192 24.1669 106.631 24.1669C105.19 24.1669 103.989 23.6907 103.269 22.8574C102.548 22.024 102.068 20.7145 102.068 19.0478V6.54785H96.064V19.6431C96.064 22.7383 97.1447 25.2383 98.9459 27.1431C100.867 28.9288 103.509 30.0002 106.631 30.0002C109.753 30.0002 112.395 29.0478 114.316 27.1431C116.117 25.2383 117.198 22.6193 117.198 19.6431Z" fill="white"/>
<path fill-rule="evenodd" clip-rule="evenodd" d="M129.566 6.42871C127.045 6.42871 125.003 7.143 123.442 8.57157L122.962 6.54776H118.519V29.4049H124.523V17.262C124.523 15.4763 125.003 14.1668 125.724 13.3335C126.444 12.5001 127.525 12.0239 129.206 12.0239H132.328V6.42871H129.566Z" fill="white"/>
<path fill-rule="evenodd" clip-rule="evenodd" d="M155.504 21.0713L155.744 20.1189H149.74L149.5 20.5951C148.419 22.857 146.498 24.1665 143.976 24.1665C140.614 24.1665 137.972 21.4284 137.972 17.976C137.972 14.4046 140.494 11.7856 143.976 11.7856C146.498 11.7856 148.539 13.0951 149.5 15.238L149.74 15.7141H155.624L155.384 14.7618C154.063 9.52367 149.62 6.07129 143.976 6.07129C137.131 6.07129 131.968 11.1903 131.968 17.976C131.968 24.7618 137.131 29.8808 143.976 29.8808C149.62 29.8808 154.183 26.4284 155.504 21.0713Z" fill="white"/>
<path fill-rule="evenodd" clip-rule="evenodd" d="M179.52 22.1425L179.88 21.0711H173.636L173.396 21.4282C172.435 23.0949 170.634 24.1663 168.232 24.1663C166.671 24.1663 165.35 23.6901 164.39 22.8568C163.669 22.1425 163.069 21.3092 162.709 20.1187H179.76L179.88 19.4044C180 18.9282 180 18.333 180 17.8568C180 11.3092 175.317 5.83301 168.232 5.83301C161.508 5.83301 156.464 10.9521 156.464 17.7378C156.464 24.5235 161.508 29.6425 168.232 29.6425C173.516 29.8806 177.719 27.0235 179.52 22.1425ZM168.352 11.5473C169.793 11.5473 171.114 12.0235 172.075 12.7378C172.795 13.333 173.396 14.0473 173.756 15.1187H162.949C163.909 12.9759 165.831 11.5473 168.352 11.5473Z" fill="white"/>
<path d="M18.4923 18.4525C18.3722 18.0953 18.3722 17.7382 18.7324 17.6191C21.3742 16.0715 22.6951 13.0953 22.6951 9.88104C22.6951 3.80962 18.7324 0.119141 11.5276 0.119141H1.08065C0.600332 0.119141 0.240091 0.595331 0.480252 1.07152L2.88185 5.47628C3.00193 5.71438 3.24209 5.83343 3.48225 5.83343H10.6871C13.3288 5.83343 15.0099 7.50009 15.0099 10.0001C15.0099 12.5001 13.4489 14.1668 10.6871 14.1668H8.88586C8.40554 14.1668 8.16538 14.6429 8.28546 15.1191L10.567 19.2858L14.8899 27.1429C16.0907 29.4048 16.9312 30.0001 18.7324 30.0001C20.8939 30.0001 22.4549 28.5715 22.4549 26.5477C22.4549 25.7144 22.3348 25.0001 21.6143 23.9287L18.4923 18.4525Z" fill="white"/>
<path d="M3.6024 30.0001C5.64376 30.0001 7.2048 28.3334 7.2048 26.3096C7.2048 24.2858 5.52368 22.6191 3.6024 22.6191C1.56104 22.6191 0 24.2858 0 26.3096C0 28.3334 1.68112 30.0001 3.6024 30.0001Z" fill="white"/>
</svg>
